<svg xmlns="http://www.w3.org/2000/svg" width="1125" height="675" viewBox="0 0 1125 675">
  <!-- v2 · 3.5in x 2in @300dpi + 0.125in bleed (trim = inner 1050x600). -->
  <defs>
    <linearGradient id="brand" x1="0" y1="0" x2="1" y2="1">
      <stop offset="0" stop-color="#db2777"/>
      <stop offset="0.5" stop-color="#fb7185"/>
      <stop offset="1" stop-color="#14b8a6"/>
    </linearGradient>
    <radialGradient id="g1" cx="50%" cy="50%" r="50%">
      <stop offset="0" stop-color="#14b8a6" stop-opacity="0.42"/>
      <stop offset="1" stop-color="#14b8a6" stop-opacity="0"/>
    </radialGradient>
    <radialGradient id="g2" cx="50%" cy="50%" r="50%">
      <stop offset="0" stop-color="#db2777" stop-opacity="0.45"/>
      <stop offset="1" stop-color="#db2777" stop-opacity="0"/>
    </radialGradient>
  </defs>

  <rect width="1125" height="675" fill="#131316"/>
  <circle cx="100" cy="640" r="340" fill="url(#g1)"/>
  <circle cx="980" cy="40" r="300" fill="url(#g2)"/>
  <rect x="0" y="0" width="16" height="675" fill="url(#brand)"/>

  <!-- contact -->
  <text x="110" y="150" font-family="Arial, Helvetica, sans-serif" font-size="22" letter-spacing="6" fill="#2dd4bf">LET&#39;S CONNECT</text>
  <text x="110" y="216" font-family="Arial, Helvetica, sans-serif" font-size="29" fill="#ffffff">askmikeai@gmail.com</text>
  <text x="110" y="272" font-family="Arial, Helvetica, sans-serif" font-size="29" fill="#ffffff">+1 (754) 295-9900</text>
  <text x="110" y="328" font-family="Arial, Helvetica, sans-serif" font-size="29" fill="#2dd4bf">askmikeai.com</text>

  <!-- handle + gradient-ring social chips (white icons) -->
  <text x="110" y="404" font-family="Arial, Helvetica, sans-serif" font-size="27" font-weight="700" fill="#ffffff">@askmikeai</text>

  <g transform="translate(124,470)">
    <circle r="27" fill="#ffffff" fill-opacity="0.04" stroke="url(#brand)" stroke-width="2.5"/>
    <g transform="translate(-13,-13) scale(1.083)"><path fill="#ffffff" d="M18.244 2.25h3.308l-7.227 8.26 8.502 11.24H16.17l-5.214-6.817L4.99 21.75H1.68l7.73-8.835L1.254 2.25H8.08l4.713 6.231zm-1.161 17.52h1.833L7.084 4.126H5.117z"/></g>
  </g>
  <g transform="translate(196,470)">
    <circle r="27" fill="#ffffff" fill-opacity="0.04" stroke="url(#brand)" stroke-width="2.5"/>
    <g transform="translate(-13,-13) scale(1.083)"><path fill="#ffffff" d="M23.498 6.186a3.016 3.016 0 0 0-2.122-2.136C19.505 3.545 12 3.545 12 3.545s-7.505 0-9.377.505A3.017 3.017 0 0 0 .502 6.186C0 8.07 0 12 0 12s0 3.93.502 5.814a3.016 3.016 0 0 0 2.122 2.136c1.871.505 9.376.505 9.376.505s7.505 0 9.377-.505a3.015 3.015 0 0 0 2.122-2.136C24 15.93 24 12 24 12s0-3.93-.502-5.814zM9.545 15.568V8.432L15.818 12l-6.273 3.568z"/></g>
  </g>
  <g transform="translate(268,470)">
    <circle r="27" fill="#ffffff" fill-opacity="0.04" stroke="url(#brand)" stroke-width="2.5"/>
    <g transform="translate(-13,-13) scale(1.083)"><path fill="#ffffff" d="M12.315 2c2.43 0 2.784.013 3.808.06 1.064.049 1.791.218 2.427.465a4.902 4.902 0 011.772 1.153 4.902 4.902 0 011.153 1.772c.247.636.416 1.363.465 2.427.048 1.067.06 1.407.06 4.123v.08c0 2.643-.012 2.987-.06 4.043-.049 1.064-.218 1.791-.465 2.427a4.902 4.902 0 01-1.153 1.772 4.902 4.902 0 01-1.772 1.153c-.636.247-1.363.416-2.427.465-1.067.048-1.407.06-4.123.06h-.08c-2.643 0-2.987-.012-4.043-.06-1.064-.049-1.791-.218-2.427-.465a4.902 4.902 0 01-1.772-1.153 4.902 4.902 0 01-1.153-1.772c-.247-.636-.416-1.363-.465-2.427-.047-1.024-.06-1.379-.06-3.808v-.63c0-2.43.013-2.784.06-3.808.049-1.064.218-1.791.465-2.427a4.902 4.902 0 011.153-1.772A4.902 4.902 0 015.45 2.525c.636-.247 1.363-.416 2.427-.465C8.901 2.013 9.256 2 11.685 2h.63zm-.081 1.802h-.468c-2.456 0-2.784.011-3.807.058-.975.045-1.504.207-1.857.344-.467.182-.8.398-1.15.748-.35.35-.566.683-.748 1.15-.137.353-.3.882-.344 1.857-.047 1.023-.058 1.351-.058 3.807v.468c0 2.456.011 2.784.058 3.807.045.975.207 1.504.344 1.857.182.466.399.8.748 1.15.35.35.683.566 1.15.748.353.137.882.3 1.857.344 1.054.048 1.37.058 4.041.058h.08c2.597 0 2.917-.01 3.96-.058.976-.045 1.505-.207 1.858-.344.466-.182.8-.398 1.15-.748.35-.35.566-.683.748-1.15.137-.353.3-.882.344-1.857.048-1.055.058-1.37.058-4.041v-.08c0-2.597-.01-2.917-.058-3.96-.045-.976-.207-1.505-.344-1.858a3.097 3.097 0 00-.748-1.15 3.098 3.098 0 00-1.15-.748c-.353-.137-.882-.3-1.857-.344-1.023-.047-1.351-.058-3.807-.058zM12 6.865a5.135 5.135 0 110 10.27 5.135 5.135 0 010-10.27zm0 1.802a3.333 3.333 0 100 6.666 3.333 3.333 0 000-6.666zm5.338-3.205a1.2 1.2 0 110 2.4 1.2 1.2 0 010-2.4z"/></g>
  </g>
  <g transform="translate(340,470)">
    <circle r="27" fill="#ffffff" fill-opacity="0.04" stroke="url(#brand)" stroke-width="2.5"/>
    <g transform="translate(-13,-13) scale(1.083)"><path fill="#ffffff" d="M12.525.02c1.31-.02 2.61-.01 3.91-.02.08 1.53.63 3.09 1.75 4.17 1.12 1.11 2.7 1.62 4.24 1.79v4.03c-1.44-.05-2.89-.35-4.2-.97-.57-.26-1.1-.59-1.62-.93-.01 2.92.01 5.84-.02 8.75-.08 1.4-.54 2.79-1.35 3.94-1.31 1.92-3.58 3.17-5.91 3.21-1.43.08-2.86-.31-4.08-1.03-2.02-1.19-3.44-3.37-3.65-5.71-.02-.5-.03-1-.01-1.49.18-1.9 1.12-3.72 2.58-4.96 1.66-1.44 3.98-2.13 6.15-1.72.02 1.48-.04 2.96-.04 4.44-.99-.32-2.15-.23-3.02.37-.63.41-1.11 1.04-1.36 1.75-.21.51-.15 1.07-.14 1.61.24 1.64 1.82 3.02 3.5 2.87 1.12-.01 2.19-.66 2.77-1.61.19-.33.4-.67.41-1.06.1-1.79.06-3.57.07-5.36.01-4.03-.01-8.05.02-12.07z"/></g>
  </g>

  <!-- QR in a gradient-ringed frame -->
  <rect x="716" y="140" width="340" height="340" rx="28" fill="url(#brand)"/>
  <rect x="726" y="150" width="320" height="320" rx="22" fill="#ffffff"/>
  <svg x="746" y="170" width="280" height="280" viewBox="0 0 29 29" shape-rendering="crispEdges">
    <path fill="#ffffff" d="M0 0h29v29H0z"/>
    <path stroke="#131316" d="M2 2.5h7m1 0h1m1 0h1m3 0h1m3 0h7M2 3.5h1m5 0h1m1 0h5m1 0h1m1 0h1m1 0h1m5 0h1M2 4.5h1m1 0h3m1 0h1m1 0h1m1 0h5m3 0h1m1 0h3m1 0h1M2 5.5h1m1 0h3m1 0h1m4 0h1m1 0h1m1 0h2m1 0h1m1 0h3m1 0h1M2 6.5h1m1 0h3m1 0h1m1 0h1m5 0h1m3 0h1m1 0h3m1 0h1M2 7.5h1m5 0h1m2 0h4m1 0h3m1 0h1m5 0h1M2 8.5h7m1 0h1m1 0h1m1 0h1m1 0h1m1 0h1m1 0h7M13 9.5h1m1 0h1m2 0h1M2 10.5h1m2 0h8m1 0h1m1 0h1m1 0h2m2 0h1m1 0h3M2 11.5h3m1 0h2m1 0h1m1 0h4m2 0h2m2 0h5M6 12.5h5m1 0h3m1 0h2m1 0h3m1 0h1m2 0h1M2 13.5h1m4 0h1m3 0h1m2 0h1m3 0h1m1 0h2m1 0h4M6 14.5h1m1 0h2m2 0h1m1 0h4m1 0h2m5 0h1M2 15.5h1m1 0h2m1 0h1m2 0h3m2 0h2m5 0h1m2 0h1M2 16.5h2m2 0h5m1 0h4m1 0h1m1 0h1m2 0h5M2 17.5h1m2 0h1m6 0h2m2 0h2m3 0h1m1 0h2m1 0h1M2 18.5h1m1 0h1m1 0h1m1 0h2m1 0h2m3 0h1m1 0h5m1 0h2M10 19.5h1m1 0h4m2 0h1m3 0h1m1 0h2M2 20.5h7m1 0h2m1 0h1m4 0h1m1 0h1m1 0h1m3 0h1M2 21.5h1m5 0h1m1 0h1m1 0h1m1 0h1m1 0h1m1 0h1m3 0h1M2 22.5h1m1 0h3m1 0h1m1 0h2m2 0h9m2 0h1M2 23.5h1m1 0h3m1 0h1m1 0h1m1 0h1m3 0h5m5 0h1M2 24.5h1m1 0h3m1 0h1m5 0h1m1 0h1m2 0h1m2 0h5M2 25.5h1m5 0h1m2 0h2m3 0h1m4 0h2m1 0h3M2 26.5h7m1 0h1m4 0h2m1 0h1m1 0h1m2 0h1m2 0h1"/>
  </svg>
  <text x="886" y="512" font-family="Arial, Helvetica, sans-serif" font-size="22" fill="#9ca3af" text-anchor="middle">Scan to WhatsApp me</text>
</svg>
