<svg xmlns="http://www.w3.org/2000/svg" width="1920" height="1080" viewBox="0 0 1920 1080" font-family="Arial, Helvetica, sans-serif"><defs><linearGradient id="brand" x1="0" y1="0" x2="1" y2="1"><stop offset="0" stop-color="#db2777"/><stop offset="0.5" stop-color="#fb7185"/><stop offset="1" stop-color="#14b8a6"/></linearGradient><radialGradient id="gp" cx="50%" cy="50%" r="50%"><stop offset="0" stop-color="#fb7185" stop-opacity="0.5"/><stop offset="1" stop-color="#fb7185" stop-opacity="0"/></radialGradient><radialGradient id="gt" cx="50%" cy="50%" r="50%"><stop offset="0" stop-color="#14b8a6" stop-opacity="0.45"/><stop offset="1" stop-color="#14b8a6" stop-opacity="0"/></radialGradient></defs>
<rect width="1920" height="1080" fill="#131316"/>
<circle cx="960" cy="540" r="760" fill="url(#gp)" opacity="0.7"/><circle cx="960" cy="540" r="520" fill="url(#gt)" opacity="0.7"/>
<g transform="translate(900,250) scale(40)" opacity="0.14"><path fill="url(#brand)" d="M9.813 15.904L9 18.75l-.813-2.846a4.5 4.5 0 00-3.09-3.09L2.25 12l2.846-.813a4.5 4.5 0 003.09-3.09L9 5.25l.813 2.846a4.5 4.5 0 003.09 3.09L15.75 12l-2.846.813a4.5 4.5 0 00-3.09 3.09z"/></g>
<text x="960" y="520" font-size="120" font-weight="800" fill="url(#brand)" text-anchor="middle">01</text>
<text x="960" y="660" font-size="92" font-weight="800" letter-spacing="-2" fill="#ffffff" text-anchor="middle">SECTION TITLE</text>
<rect x="860" y="720" width="200" height="10" rx="5" fill="url(#brand)"/>
</svg>
