<svg xmlns="http://www.w3.org/2000/svg" width="1920" height="1080" viewBox="0 0 1920 1080" font-family="Arial, Helvetica, sans-serif"><defs><linearGradient id="brand" x1="0" y1="0" x2="1" y2="1"><stop offset="0" stop-color="#db2777"/><stop offset="0.5" stop-color="#fb7185"/><stop offset="1" stop-color="#14b8a6"/></linearGradient><radialGradient id="gp" cx="50%" cy="50%" r="50%"><stop offset="0" stop-color="#fb7185" stop-opacity="0.5"/><stop offset="1" stop-color="#fb7185" stop-opacity="0"/></radialGradient><radialGradient id="gt" cx="50%" cy="50%" r="50%"><stop offset="0" stop-color="#14b8a6" stop-opacity="0.45"/><stop offset="1" stop-color="#14b8a6" stop-opacity="0"/></radialGradient></defs>
<rect width="1920" height="1080" fill="#131316"/>
<circle cx="960" cy="540" r="720" fill="url(#gp)" opacity="0.55"/><circle cx="960" cy="900" r="520" fill="url(#gt)" opacity="0.6"/>
<g transform="translate(905,180) scale(34)" opacity="0.12"><path fill="url(#brand)" d="M9.813 15.904L9 18.75l-.813-2.846a4.5 4.5 0 00-3.09-3.09L2.25 12l2.846-.813a4.5 4.5 0 003.09-3.09L9 5.25l.813 2.846a4.5 4.5 0 003.09 3.09L15.75 12l-2.846.813a4.5 4.5 0 00-3.09 3.09z"/></g>
<text x="960" y="500" font-size="120" font-weight="800" letter-spacing="-2" fill="#ffffff" text-anchor="middle">THANKS FOR</text>
<text x="960" y="640" font-size="120" font-weight="800" letter-spacing="-2" fill="url(#brand)" text-anchor="middle">WATCHING</text>
<text x="960" y="770" font-size="42" fill="#9ca3af" text-anchor="middle">askmikeai.com</text>
<text x="960" y="840" font-size="38" fill="#6b7280" text-anchor="middle">X · YouTube · Instagram · TikTok — @askmikeai</text>
</svg>
