<svg xmlns="http://www.w3.org/2000/svg" width="1280" height="720" viewBox="0 0 1280 720" font-family="Arial, Helvetica, sans-serif"><defs><linearGradient id="brand" x1="0" y1="0" x2="1" y2="1"><stop offset="0" stop-color="#db2777"/><stop offset="0.5" stop-color="#fb7185"/><stop offset="1" stop-color="#14b8a6"/></linearGradient><linearGradient id="gold" x1="0" y1="0" x2="0" y2="1"><stop offset="0" stop-color="#fde68a"/><stop offset="0.5" stop-color="#f59e0b"/><stop offset="1" stop-color="#b45309"/></linearGradient><radialGradient id="gp" cx="50%" cy="50%" r="50%"><stop offset="0" stop-color="#fb7185" stop-opacity="0.5"/><stop offset="1" stop-color="#fb7185" stop-opacity="0"/></radialGradient><radialGradient id="gt" cx="50%" cy="50%" r="50%"><stop offset="0" stop-color="#14b8a6" stop-opacity="0.45"/><stop offset="1" stop-color="#14b8a6" stop-opacity="0"/></radialGradient><radialGradient id="rg" cx="50%" cy="50%" r="50%"><stop offset="0" stop-color="#ef4444" stop-opacity="0.55"/><stop offset="1" stop-color="#ef4444" stop-opacity="0"/></radialGradient></defs>
<rect width="1280" height="720" fill="#0e0e10"/><circle cx="260" cy="380" r="520" fill="url(#rg)"/><circle cx="1140" cy="120" r="360" fill="url(#gp)"/><g transform="translate(54,46)"><rect width="60" height="60" rx="15" fill="url(#brand)"/><text x="30" y="44" font-size="40" font-weight="700" fill="#fff" text-anchor="middle">M</text><text x="74" y="40" font-size="28" font-weight="700" fill="#fff">MIKE<tspan fill="#2dd4bf">AI</tspan></text></g>
<rect x="54" y="150" width="250" height="64" rx="14" fill="#ef4444"/><text x="179" y="194" font-size="34" font-weight="800" fill="#fff" text-anchor="middle">&#9888; WARNING</text>
<g font-weight="800" letter-spacing="-2"><text x="50" y="350" font-size="150" fill="#ef4444">STOP</text><text x="52" y="470" font-size="96" fill="#ffffff">WASTING</text><text x="52" y="566" font-size="96" fill="#ffffff">12 HRS/WK</text></g>
<ellipse cx="1040" cy="356" rx="230" ry="250" fill="none" stroke="#ef4444" stroke-width="12" transform="rotate(-6 1040 356)"/>
<path d="M620 560 C 720 600, 800 560, 840 470" fill="none" stroke="#ef4444" stroke-width="14" stroke-linecap="round"/><path d="M840 470 l -34 6 l 22 28 z" fill="#ef4444"/>
<g transform="translate(852,150)"><rect x="-12" y="-12" width="400" height="436" rx="34" fill="url(#brand)"/><rect width="376" height="412" rx="26" fill="#191920"/><rect width="376" height="412" rx="26" fill="none" stroke="#fff" stroke-opacity="0.25" stroke-width="3" stroke-dasharray="14 12"/><text x="188" y="200" font-size="24" fill="#9ca3af" text-anchor="middle">DROP A</text><text x="188" y="236" font-size="26" font-weight="700" fill="#e5e7eb" text-anchor="middle">FACE HERE</text></g><text x="1226" y="694" font-size="22" fill="#9ca3af" text-anchor="end">@askmikeai</text></svg>
