<svg xmlns="http://www.w3.org/2000/svg" width="1280" height="720" viewBox="0 0 1280 720" font-family="Arial, Helvetica, sans-serif"><defs><linearGradient id="brand" x1="0" y1="0" x2="1" y2="1"><stop offset="0" stop-color="#db2777"/><stop offset="0.5" stop-color="#fb7185"/><stop offset="1" stop-color="#14b8a6"/></linearGradient><linearGradient id="gold" x1="0" y1="0" x2="0" y2="1"><stop offset="0" stop-color="#fde68a"/><stop offset="0.5" stop-color="#f59e0b"/><stop offset="1" stop-color="#b45309"/></linearGradient><radialGradient id="gp" cx="50%" cy="50%" r="50%"><stop offset="0" stop-color="#fb7185" stop-opacity="0.5"/><stop offset="1" stop-color="#fb7185" stop-opacity="0"/></radialGradient><radialGradient id="gt" cx="50%" cy="50%" r="50%"><stop offset="0" stop-color="#14b8a6" stop-opacity="0.45"/><stop offset="1" stop-color="#14b8a6" stop-opacity="0"/></radialGradient><radialGradient id="rg" cx="50%" cy="50%" r="50%"><stop offset="0" stop-color="#ef4444" stop-opacity="0.55"/><stop offset="1" stop-color="#ef4444" stop-opacity="0"/></radialGradient></defs>
<rect width="1280" height="720" fill="#0e0e10"/><circle cx="900" cy="360" r="560" fill="url(#gp)"/><circle cx="260" cy="660" r="380" fill="url(#gt)"/><g transform="translate(54,46)"><rect width="60" height="60" rx="15" fill="url(#brand)"/><text x="30" y="44" font-size="40" font-weight="700" fill="#fff" text-anchor="middle">M</text><text x="74" y="40" font-size="28" font-weight="700" fill="#fff">MIKE<tspan fill="#2dd4bf">AI</tspan></text></g>
<g transform="translate(70,150)"><rect x="-14" y="-14" width="520" height="556" rx="40" fill="url(#brand)"/><rect width="492" height="528" rx="32" fill="#191920"/><rect width="492" height="528" rx="32" fill="none" stroke="#fff" stroke-opacity="0.25" stroke-width="3" stroke-dasharray="16 14"/><text x="246" y="250" font-size="30" fill="#9ca3af" text-anchor="middle">DROP A BIG</text><text x="246" y="300" font-size="36" font-weight="800" fill="#e5e7eb" text-anchor="middle">REACTION FACE</text></g>
<g font-weight="800" letter-spacing="-3"><text x="660" y="380" font-size="150" fill="#ffffff">THIS IS</text><text x="660" y="520" font-size="170" fill="url(#brand)">INSANE.</text></g>
<ellipse cx="316" cy="300" rx="250" ry="270" fill="none" stroke="#ef4444" stroke-width="12" transform="rotate(-5 316 300)"/>
<text x="1226" y="694" font-size="22" fill="#9ca3af" text-anchor="end">@askmikeai</text></svg>
